# xmcd
#
# Track frame offsets: 
#        150
#        16642
#        33569
#        54406
#        73800
#        88823
#        109002
#        132741
#        147552
#        166828
#        184846
#        202171
#        219319
#        236820
#        261511
#        269825
#
# Disc length: 3899 seconds
#
# Revision: 0
# Processed by: cddbd v1.5.2PL0 Copyright (c) Steve Scherf et al.
# Submitted via: ExactAudioCopy v1.3
#
DISCID=010f3910
DTITLE=Rodney Crowell - The Essential Rodney Crowell
DYEAR=2004
DGENRE=Country
TTITLE0=I Ain't Living Long Like This
TTITLE1=Stars On The Water
TTITLE2=Shame On The Moon
TTITLE3=Oh, King Richard
TTITLE4=I Couldn't Leave You If I Tried
TTITLE5=After All This Time
TTITLE6=The Last Waltz
TTITLE7=She's Crazy For Leaving
TTITLE8=A Long And Lonesome Highway
TTITLE9=What Kind Of Love
TTITLE10=Lovin' All Night
TTITLE11=Please Remember Me
TTITLE12=I Walk Tghe Line
TTITLE13=Fates Right Hand
TTITLE14=Still Learning To Fly
TTITLE15='Till I Gain Contro Again
EXTD=
EXTT0=
EXTT1=
EXTT2=
EXTT3=
EXTT4=
EXTT5=
EXTT6=
EXTT7=
EXTT8=
EXTT9=
EXTT10=
EXTT11=
EXTT12=
EXTT13=
EXTT14=
EXTT15=
PLAYORDER=
